# xmcd
#
# Track frame offsets:
# 150
# 9198
# 13957
# 22908
# 27855
# 39437
# 49865
# 57221
# 68396
# 78480
# 89645
# 103513
# 116928
# 123752
# 137177
# 147001
# 156976
# 163126
# 171230
# 180959
# 193781
# 200003
# 206836
# 212872
# 226296
# 234576
# 245933
# 253807
# 262652
# 277745
# 288776
#
# Disc length: 3915 seconds
#
#
# Revision: 0
# Processed by: cddbd v1.5.2PL0 Copyright (c) Steve Scherf et al.
# Submitted via: FreeRIP 2.93 
#
DISCID=b60f491f
DTITLE=vvv - xxx
DYEAR=1900
DGENRE=Vocal
TTITLE0=v
TTITLE1=v
TTITLE2=v
TTITLE3=v
TTITLE4=v
TTITLE5=v
TTITLE6=v
TTITLE7=v
TTITLE8=v
TTITLE9=v
TTITLE10=v
TTITLE11=v
TTITLE12=v
TTITLE13=v
TTITLE14=v
TTITLE15=v
TTITLE16=v
TTITLE17=v
TTITLE18=v
TTITLE19=v
TTITLE20=v
TTITLE21=v
TTITLE22=v
TTITLE23=v
TTITLE24=v
TTITLE25=v
TTITLE26=v
TTITLE27=v
TTITLE28=v
TTITLE29=v
TTITLE30=v
EXTD=
EXTT0=
EXTT1=
EXTT2=
EXTT3=
EXTT4=
EXTT5=
EXTT6=
EXTT7=
EXTT8=
EXTT9=
EXTT10=
EXTT11=
EXTT12=
EXTT13=
EXTT14=
EXTT15=
EXTT16=
EXTT17=
EXTT18=
EXTT19=
EXTT20=
EXTT21=
EXTT22=
EXTT23=
EXTT24=
EXTT25=
EXTT26=
EXTT27=
EXTT28=
EXTT29=
EXTT30=
PLAYORDER=
